{"title":"Destination Wedding 2018 1080p WEB-DL DD 5.1 x264 [MW]","magnet":"magnet:?xt=urn:btih:93cf8f2aa663340beffeacd37d2ae41a30745344&dn=Destination+Wedding+2018+1080p+WEB-DL+DD+5.1+x264+%5BMW%5D&tr=udp%3A%2F%2Ftracker.leechers-paradise.org%3A6969&tr=udp%3A%2F%2Fzer0day.ch%3A1337&tr=udp%3A%2F%2Fopen.demonii.com%3A1337&tr=udp%3A%2F%2Ftracker.coppersurfer.tk%3A6969&tr=udp%3A%2F%2Fexodus.desync.com%3A6969","uploader":"MFreaky","categoryP":"video","categoryS":"hd___movies","size":"1899859716","seeders":"1","leechers":"0","description":" <a href=\"https://pichub.site/image/DXXKT\" rel=\"nofollow\" target=\"_NEW\">https://pichub.site/image/DXXKT</a> <a href=\"\nhttps://pichub.site/image/DXnXN\" rel=\"nofollow\" target=\"_NEW\">\nhttps://pichub.site/image/DXnXN</a> <a href=\"\nhttps://pichub.site/image/DXZiZ\" rel=\"nofollow\" target=\"_NEW\">\nhttps://pichub.site/image/DXZiZ</a> <a href=\"\nhttps://pichub.site/image/DX3MD\" rel=\"nofollow\" target=\"_NEW\">\nhttps://pichub.site/image/DX3MD</a> <a href=\"\nhttps://pichub.site/image/DX1pg\" rel=\"nofollow\" target=\"_NEW\">\nhttps://pichub.site/image/DX1pg</a>\r\n\r\nIMDB <a href=\"\nhttps://www.imdb.com/title/tt6987770/\" rel=\"nofollow\" target=\"_NEW\">\nhttps://www.imdb.com/title/tt6987770/</a>\r\n\r\nVideo\r\nID                                       : 1\r\nFormat                                   : AVC\r\nFormat/Info                              : Advanced Video Codec\r\nFormat profile                           : High@L4.1\r\nFormat settings                          : CABAC / 4 Ref Frames\r\nFormat settings, CABAC                   : Yes\r\nFormat settings, RefFrames               : 4 frames\r\nCodec ID                                 : V_MPEG4/ISO/AVC\r\nDuration                                 : 1 h 26 min\r\nBit rate                                 : 2 600 kb/s\r\nWidth                                    : 1 916 pixels\r\nHeight                                   : 800 pixels\r\nDisplay aspect ratio                     : 2.40:1\r\nFrame rate mode                          : Constant\r\nFrame rate                               : 23.976 (24000/1001) FPS\r\nColor space                              : YUV\r\nChroma subsampling                       : 4:2:0\r\nBit depth                                : 8 bits\r\nScan type                                : Progressive\r\nBits/(Pixel*Frame)                       : 0.071\r\nStream size                              : 1.54 GiB (87%)\r\nWriting library                          : x264 core 155 r2901 7d0ff22\r\nDefault                                  : Yes\r\nForced                                   : No\r\n\r\nAudio\r\nID                                       : 2\r\nFormat                                   : AC-3\r\nFormat/Info                              : Audio Coding 3\r\nCodec ID                                 : A_AC3\r\nDuration                                 : 1 h 26 min\r\nBit rate mode                            : Constant\r\nBit rate                                 : 384 kb/s\r\nChannel(s)                               : 6 channels\r\nChannel positions                        : Front: L C R, Side: L R, LFE\r\nSampling rate                            : 48.0 kHz\r\nFrame rate                               : 31.250 FPS (1536 SPF)\r\nBit depth                                : 16 bits\r\nCompression mode                         : Lossy\r\nStream size                              : 238 MiB (13%)\r\nLanguage                                 : English\r\nService kind                             : Complete Main\r\nDefault                                  : Yes\r\nForced                                   : No","last_updated":"2018-09-08T12:17:43.557Z","parsed":{"xt":"urn:btih:93cf8f2aa663340beffeacd37d2ae41a30745344","dn":"Destination Wedding 2018 1080p WEB-DL DD 5.1 x264 [MW]","tr":["udp://exodus.desync.com:6969","udp://open.demonii.com:1337","udp://tracker.coppersurfer.tk:6969","udp://tracker.leechers-paradise.org:6969","udp://zer0day.ch:1337"],"infoHash":"93cf8f2aa663340beffeacd37d2ae41a30745344","infoHashBuffer":{"type":"Buffer","data":[147,207,143,42,166,99,52,11,239,254,172,211,125,42,228,26,48,116,83,68]},"name":"Destination Wedding 2018 1080p WEB-DL DD 5.1 x264 [MW]","announce":["udp://exodus.desync.com:6969","udp://open.demonii.com:1337","udp://tracker.coppersurfer.tk:6969","udp://tracker.leechers-paradise.org:6969","udp://zer0day.ch:1337"],"urlList":[]}}